<svg xmlns="http://www.w3.org/2000/svg" width="15.449" height="15.102" viewBox="0 0 15.449 15.102">
  <path id="Path_250" data-name="Path 250" d="M6.146,6.488a.229.229,0,0,0-.22.237v3.521a.229.229,0,0,0,.22.237H9.7a.229.229,0,0,0,.22-.237V6.726a.229.229,0,0,0-.22-.237Zm5.727,0a.229.229,0,0,0-.22.237v3.521a.229.229,0,0,0,.22.237h3.555a.229.229,0,0,0,.22-.237V6.726a.229.229,0,0,0-.22-.237H11.873Zm5.727,0a.229.229,0,0,0-.22.237v3.521a.229.229,0,0,0,.22.237h3.555a.229.229,0,0,0,.22-.237V6.726a.229.229,0,0,0-.22-.237ZM6.146,12.041a.229.229,0,0,0-.22.237V15.8a.229.229,0,0,0,.22.237H9.7a.229.229,0,0,0,.22-.237V12.279a.229.229,0,0,0-.22-.237Zm5.727,0a.229.229,0,0,0-.22.237V15.8a.229.229,0,0,0,.22.237h3.555a.229.229,0,0,0,.22-.237V12.279a.229.229,0,0,0-.22-.237Zm5.727,0a.229.229,0,0,0-.22.237V15.8a.229.229,0,0,0,.22.237h3.555a.229.229,0,0,0,.22-.237V12.279a.229.229,0,0,0-.22-.237ZM6.146,17.595a.229.229,0,0,0-.22.237v3.521a.229.229,0,0,0,.22.237H9.7a.229.229,0,0,0,.22-.237V17.832a.229.229,0,0,0-.22-.237Zm5.727,0a.229.229,0,0,0-.22.237v3.521a.229.229,0,0,0,.22.237h3.555a.229.229,0,0,0,.22-.237V17.832a.229.229,0,0,0-.22-.237Zm5.727,0a.229.229,0,0,0-.22.237v3.521a.229.229,0,0,0,.22.237h3.555a.229.229,0,0,0,.22-.237V17.832a.229.229,0,0,0-.22-.237Z" transform="translate(-5.926 -6.488)"/>
</svg>
