<svg xmlns="http://www.w3.org/2000/svg" width="20.382" height="20.751" viewBox="0 0 20.382 20.751">
  <g id="noun_Certificate_169101" transform="translate(-5.8 -5)">
    <path id="Path_255" data-name="Path 255" d="M23.292,73.669c-.138-.023-.277-.046-.392-.069A1.077,1.077,0,0,0,23.292,73.669Z" transform="translate(-13.157 -52.783)" fill="#b7b7b7"/>
    <path id="Path_256" data-name="Path 256" d="M17.9,18.949H7.253V17.312h0V6.476H24.729V8.113h0v6.548a4.276,4.276,0,0,1,1.453,2.167V6.453A1.446,1.446,0,0,0,24.729,5H7.253A1.446,1.446,0,0,0,5.8,6.453V18.926a1.446,1.446,0,0,0,1.453,1.453H18.527A4.212,4.212,0,0,1,17.9,18.949Z" fill="#b7b7b7"/>
    <g id="Group_312" data-name="Group 312" transform="translate(9.835 9.519)">
      <rect id="Rectangle_100" data-name="Rectangle 100" width="12.312" height="1.291" transform="translate(0)" fill="#b7b7b7"/>
      <rect id="Rectangle_101" data-name="Rectangle 101" width="12.312" height="1.291" transform="translate(0 2.536)" fill="#b7b7b7"/>
      <rect id="Rectangle_102" data-name="Rectangle 102" width="6.018" height="1.291" transform="translate(0 5.072)" fill="#b7b7b7"/>
    </g>
    <g id="Group_313" data-name="Group 313" transform="translate(19.08 15.006)">
      <path id="Path_257" data-name="Path 257" d="M69.321,77.976A4.117,4.117,0,0,1,67.2,77.4v4.058h0l2.121-2.236,2.121,2.236h0V77.423A4.335,4.335,0,0,1,69.321,77.976Z" transform="translate(-66.324 -70.713)" fill="#b7b7b7"/>
      <path id="Path_258" data-name="Path 258" d="M66.35,48.4a3,3,0,1,0,3.043,2.951A2.992,2.992,0,0,0,66.35,48.4Zm1.291,4.7-1.222-.623-1.2.669.208-1.36-.991-.945,1.36-.208.576-1.245L67,50.612l1.36.184-.968.968Z" transform="translate(-63.399 -48.399)" fill="#b7b7b7"/>
    </g>
  </g>
</svg>
