<svg xmlns="http://www.w3.org/2000/svg" width="20.682" height="17.499" viewBox="0 0 20.682 17.499">
  <g id="noun_Diploma_2161781" transform="translate(-2.5 -9.8)">
    <g id="Group_314" data-name="Group 314" transform="translate(2.5 9.8)">
      <path id="Path_259" data-name="Path 259" d="M22.592,9.8H3.11a.609.609,0,0,0-.61.61V26.689a.609.609,0,0,0,.61.61H22.57a.609.609,0,0,0,.61-.61V10.41A.591.591,0,0,0,22.592,9.8ZM21.96,26.079H3.742V11.042H21.96V26.079Z" transform="translate(-2.5 -9.8)" fill="#b7b7b7"/>
      <path id="Path_260" data-name="Path 260" d="M15.37,34.373H29.884a.382.382,0,0,0,.37-.37V22.67a.382.382,0,0,0-.37-.37H15.37a.382.382,0,0,0-.37.37V34A.382.382,0,0,0,15.37,34.373Zm.37-11.332H29.513V33.632H15.741Z" transform="translate(-12.276 -19.576)" fill="#b7b7b7"/>
      <path id="Path_261" data-name="Path 261" d="M39.982,54.4H33.27a.37.37,0,1,0,0,.741h6.712a.37.37,0,1,0,0-.741Z" transform="translate(-26.275 -44.681)" fill="#b7b7b7"/>
      <path id="Path_262" data-name="Path 262" d="M43.424,63.5H39.37a.37.37,0,1,0,0,.741h4.053a.382.382,0,0,0,.37-.37A.367.367,0,0,0,43.424,63.5Z" transform="translate(-31.046 -51.798)" fill="#b7b7b7"/>
      <path id="Path_263" data-name="Path 263" d="M36.431,33.877l2.484.741a1.209,1.209,0,0,0,.37.065,1.341,1.341,0,0,0,.392-.065l2.114-.632v1.09H41.77a.058.058,0,0,0-.065.065v.327a.058.058,0,0,0,.065.065h.022l-.109.2c-.022.044,0,.087.044.087h.305c.044,0,.065-.044.044-.087l-.109-.2h.022a.058.058,0,0,0,.065-.065v-.327a.058.058,0,0,0-.065-.065h-.022V33.92l.2-.065a.182.182,0,0,0,0-.349l-2.484-.741a1.234,1.234,0,0,0-.392-.065,1.018,1.018,0,0,0-.37.065l-2.484.741A.2.2,0,0,0,36.431,33.877Z" transform="translate(-28.934 -27.71)" fill="#b7b7b7"/>
      <path id="Path_264" data-name="Path 264" d="M42.4,41.458,40.9,41v.937a.4.4,0,0,0,.283.392l.632.2a3.641,3.641,0,0,0,2.157,0l.632-.2a.4.4,0,0,0,.283-.392V41l-1.547.458a1.815,1.815,0,0,1-.479.065A1.659,1.659,0,0,1,42.4,41.458Z" transform="translate(-32.532 -34.201)" fill="#b7b7b7"/>
    </g>
  </g>
</svg>
