<svg xmlns="http://www.w3.org/2000/svg" width="21.595" height="18.186" viewBox="0 0 21.595 18.186">
  <g id="noun_degree_3007499" transform="translate(-2.522 -8.023)">
    <g id="Group_315" data-name="Group 315" transform="translate(2.522 8.023)">
      <path id="Path_265" data-name="Path 265" d="M33.065,89.239v3.778h5.188V89.239Zm-3.644-6.824.284.881.927,0a.664.664,0,0,1,.389,1.2l-.749.544.288.88a.666.666,0,0,1-1.061.713l-.711-.518-.749.546a.664.664,0,0,1-1.021-.741l.286-.881-.75-.543a.666.666,0,0,1,.438-1.2l.879,0,.284-.881A.665.665,0,0,1,29.421,82.415Zm-6.766,0,.284.881.927,0a.664.664,0,0,1,.389,1.2l-.749.544.288.88a.666.666,0,0,1-1.061.713l-.711-.518-.749.546a.664.664,0,0,1-1.021-.741l.286-.881-.75-.543a.666.666,0,0,1,.438-1.2l.879,0,.284-.881a.665.665,0,0,1,1.264,0Zm13.532,0,.284.881.927,0a.664.664,0,0,1,.389,1.2l-.749.544.288.88a.666.666,0,0,1-1.061.713l-.711-.518-.749.546a.664.664,0,0,1-1.021-.741l.286-.881-.75-.543a.666.666,0,0,1,.438-1.2l.879,0,.284-.881A.665.665,0,0,1,36.187,82.415Zm-7.4,8.072a3.067,3.067,0,0,1,2.946,2.23V89.239H25.841v3.48A3.066,3.066,0,0,1,28.788,90.487Zm2.955,3.861a3.039,3.039,0,0,1-.186.5l2.262,3.952a.6.6,0,0,1-.463.893l-3.065.438a.6.6,0,0,1-.657-.421l-.844-2.836-.844,2.836a.6.6,0,0,1-.658.421L24.221,99.7a.6.6,0,0,1-.463-.893l2.261-3.954a3.037,3.037,0,0,1-.185-.5H18.656a.666.666,0,0,1-.666-.666v-5.11a.666.666,0,0,1,.666-.666H38.919a.666.666,0,0,1,.666.666v5.11a.666.666,0,0,1-.666.666Zm-.977,1.532a3.15,3.15,0,0,1-.872.52l.738,2.478,1.709-.244Zm-3.085.52a3.069,3.069,0,0,1-.872-.52l-1.575,2.754,1.709.244Zm1.107-4.715a1.862,1.862,0,1,0,1.862,1.862A1.86,1.86,0,0,0,28.788,91.686Zm-4.278,1.331V89.239H19.322v3.778Z" transform="translate(-17.99 -81.956)" fill="#b7b7b7"/>
    </g>
  </g>
</svg>
